<?xml version="1.0" encoding="utf-8"?>
<!-- Generator: Adobe Illustrator 21.1.0, SVG Export Plug-In . SVG Version: 6.00 Build 0)  -->
<svg version="1.1" id="Layer_1" xmlns="http://www.w3.org/2000/svg" xmlns:xlink="http://www.w3.org/1999/xlink" x="0px" y="0px"
	 viewBox="0 0 64 64" style="enable-background:new 0 0 64 64;" xml:space="preserve">
<style type="text/css">
	.st0{fill-opacity:0.25;}
	.st1{fill:#67BE73;}
</style>
<path class="st0" d="M62.5,31.3C62.3,31.1,62,31,61.8,31c-0.3,0-0.5,0.1-0.7,0.3c-0.2,0.2-0.3,0.4-0.3,0.7c0,6.4-2.1,12.6-6.1,17.7
	c-3.9,5.1-9.4,8.7-15.6,10.2c-6.2,1.6-12.8,1.1-18.6-1.5c-5.9-2.6-10.7-7-13.8-12.6c-3.1-5.6-4.2-12.1-3.1-18.4
	c1-6.3,4.1-12.1,8.8-16.5c4.7-4.4,10.7-7,17.1-7.6c6.4-0.6,12.8,1,18.2,4.5c0.2,0.1,0.5,0.2,0.7,0.1c0.1,0,0.2-0.1,0.3-0.1
	c0.1-0.1,0.2-0.2,0.3-0.3c0.1-0.2,0.2-0.5,0.1-0.7c-0.1-0.2-0.2-0.5-0.4-0.6c-4-2.6-8.6-4.2-13.3-4.7c-4.8-0.5-9.6,0.1-14,1.8
	S12.8,7.5,9.5,11c-3.3,3.5-5.7,7.7-7,12.3c-1.3,4.6-1.6,9.4-0.8,14.1c0.8,4.7,2.8,9.1,5.6,13c2.9,3.8,6.6,6.9,10.9,9.1
	c4.3,2.1,9,3.3,13.8,3.3c8.2,0,16-3.3,21.7-9c5.8-5.8,9-13.6,9-21.7C62.8,31.7,62.6,31.5,62.5,31.3z"/>
<path class="st1" d="M18.8,26c-0.2-0.2-0.4-0.3-0.7-0.3c-0.2,0-0.5,0.1-0.7,0.3c-0.2,0.2-0.3,0.4-0.3,0.7s0.1,0.5,0.3,0.7l14.1,14.1
	c0.2,0.2,0.4,0.3,0.7,0.3c0.3,0,0.5-0.1,0.7-0.3l29-29c0.2-0.2,0.3-0.4,0.3-0.7s-0.1-0.5-0.3-0.7s-0.4-0.3-0.7-0.3
	c-0.2,0-0.5,0.1-0.7,0.3L32.2,39.4L18.8,26z"/>
</svg>
