<?xml version="1.0" encoding="utf-8"?>
<!-- Generator: Adobe Illustrator 21.1.0, SVG Export Plug-In . SVG Version: 6.00 Build 0)  -->
<svg version="1.1" id="Layer_1" xmlns="http://www.w3.org/2000/svg" xmlns:xlink="http://www.w3.org/1999/xlink" x="0px" y="0px"
	 viewBox="0 0 64 64" style="enable-background:new 0 0 64 64;" xml:space="preserve">
<style type="text/css">
	.st0{fill:#FFFFFF;}
</style>
<path class="st0" d="M54.4,21.6h-2.2V11.1c0-0.2,0-0.4-0.1-0.6c-0.1-0.2-0.2-0.4-0.4-0.5s-0.3-0.3-0.5-0.3c-0.2-0.1-0.4-0.1-0.6-0.1
	c-0.4,0-0.7,0.2-1,0.5s-0.4,0.6-0.4,1v38.5L23.8,36.3V20.2L51.3,5.7C51.6,5.6,51.9,5.3,52,5c0.1-0.3,0.2-0.7,0.1-1
	c-0.1-0.3-0.3-0.6-0.5-0.8c-0.3-0.2-0.6-0.3-0.9-0.3c-0.2,0-0.5,0.1-0.7,0.2l-28,14.7H4.4c-0.4,0-0.8,0.2-1.1,0.4
	c-0.3,0.3-0.4,0.7-0.4,1.1v17.9c0,0.2,0,0.4,0.1,0.6c0.1,0.2,0.2,0.4,0.3,0.5c0.1,0.1,0.3,0.3,0.5,0.3c0.2,0.1,0.4,0.1,0.6,0.1
	s0.4,0,0.6-0.1c0.2-0.1,0.3-0.2,0.5-0.3c0.1-0.1,0.2-0.3,0.3-0.5c0.1-0.2,0.1-0.4,0.1-0.6V20.8h14.9v14.9H10.4c-0.2,0-0.4,0-0.6,0.1
	c-0.2,0.1-0.4,0.2-0.5,0.3c-0.1,0.1-0.3,0.3-0.3,0.5c-0.1,0.2-0.1,0.4-0.1,0.6c0,0.2,0,0.4,0.1,0.6c0.1,0.2,0.2,0.3,0.3,0.5
	c0.1,0.1,0.3,0.2,0.5,0.3c0.2,0.1,0.4,0.1,0.6,0.1h0.4l7.1,21.3c0.1,0.3,0.3,0.6,0.5,0.7c0.3,0.2,0.6,0.3,0.9,0.3h10.4
	c0.2,0,0.5-0.1,0.7-0.2c0.2-0.1,0.4-0.3,0.5-0.5c0.1-0.2,0.2-0.4,0.3-0.7c0-0.2,0-0.5-0.1-0.7l-6.3-18.8l25,13.2
	c0.2,0.1,0.5,0.2,0.7,0.2c0.3,0,0.5-0.1,0.7-0.2c0.2-0.1,0.4-0.3,0.5-0.5s0.2-0.5,0.2-0.7V35h2.2c3.7,0,6.7-3,6.7-6.7
	C61.1,24.6,58,21.6,54.4,21.6z M27.7,58.1h-7.3L14,38.7h7.3L27.7,58.1z M54.4,32h-2.2v-7.5h2.2c2.1,0,3.7,1.6,3.7,3.7
	C58.1,30.4,56.4,32,54.4,32z"/>
</svg>
