<?xml version="1.0" encoding="utf-8"?>
<!-- Generator: Adobe Illustrator 21.1.0, SVG Export Plug-In . SVG Version: 6.00 Build 0)  -->
<svg version="1.1" id="Layer_1" xmlns="http://www.w3.org/2000/svg" xmlns:xlink="http://www.w3.org/1999/xlink" x="0px" y="0px"
	 viewBox="0 0 64 64" style="enable-background:new 0 0 64 64;" xml:space="preserve">
<style type="text/css">
	.st0{fill:#FFFFFF;}
</style>
<title>Group</title>
<desc>Created using Figma</desc>
<path class="st0" d="M48.5,46.7c-0.5-0.5-1.3-0.5-1.8,0c-0.5,0.5-0.5,1.3,0,1.8l4.9,4.9c0.3,0.2,0.6,0.4,0.9,0.4
	c0.3,0,0.7-0.1,0.9-0.4c0.5-0.5,0.5-1.3,0-1.8L48.5,46.7z M32,17.5c-3.9,0-7.5,1.5-10.2,4.2c-0.5,0.5-0.5,1.3,0,1.8
	c0.5,0.5,1.3,0.5,1.8,0c2.3-2.3,5.2-3.5,8.4-3.5c6.6,0,11.9,5.3,11.9,11.9c0,6.6-5.3,11.9-11.9,11.9c-6.6,0-11.9-5.3-11.9-11.9
	c0-0.7-0.6-1.3-1.3-1.3c-0.7,0-1.3,0.6-1.3,1.3c0,8,6.5,14.5,14.5,14.5c8,0,14.5-6.5,14.5-14.5C46.5,24,40,17.5,32,17.5z M32,11.3
	c0.7,0,1.3-0.6,1.3-1.3V3c0-0.7-0.6-1.3-1.3-1.3c-0.7,0-1.3,0.6-1.3,1.3v7C30.7,10.7,31.3,11.3,32,11.3z M32,52.7
	c-0.7,0-1.3,0.6-1.3,1.3v7c0,0.7,0.6,1.3,1.3,1.3c0.7,0,1.3-0.6,1.3-1.3v-7C33.3,53.3,32.7,52.7,32,52.7z M47.6,17.7
	c0.3,0,0.7-0.1,0.9-0.4l4.9-4.9c0.5-0.5,0.5-1.3,0-1.8c-0.5-0.5-1.3-0.5-1.8,0l-4.9,4.9c-0.5,0.5-0.5,1.3,0,1.8
	C46.9,17.6,47.2,17.7,47.6,17.7z M11.3,32c0-0.7-0.6-1.3-1.3-1.3H3c-0.7,0-1.3,0.6-1.3,1.3c0,0.7,0.6,1.3,1.3,1.3h7
	C10.7,33.3,11.3,32.7,11.3,32z M61,30.7h-7c-0.7,0-1.3,0.6-1.3,1.3c0,0.7,0.6,1.3,1.3,1.3h7c0.7,0,1.3-0.6,1.3-1.3
	C62.2,31.3,61.7,30.7,61,30.7z M15.5,46.7l-4.9,4.9c-0.5,0.5-0.5,1.3,0,1.8c0.3,0.2,0.6,0.4,0.9,0.4c0.3,0,0.7-0.1,0.9-0.4l4.9-4.9
	c0.5-0.5,0.5-1.3,0-1.8C16.8,46.2,16,46.2,15.5,46.7z M15.5,17.3c0.2,0.3,0.6,0.4,0.9,0.4c0.3,0,0.7-0.1,0.9-0.4
	c0.5-0.5,0.5-1.3,0-1.8l-4.9-4.9c-0.5-0.5-1.3-0.5-1.8,0c-0.5,0.5-0.5,1.3,0,1.8L15.5,17.3z"/>
</svg>
