<?xml version="1.0" encoding="utf-8"?>
<!-- Generator: Adobe Illustrator 21.1.0, SVG Export Plug-In . SVG Version: 6.00 Build 0)  -->
<svg version="1.1" id="Layer_1" xmlns="http://www.w3.org/2000/svg" xmlns:xlink="http://www.w3.org/1999/xlink" x="0px" y="0px"
	 viewBox="0 0 64 64" style="enable-background:new 0 0 64 64;" xml:space="preserve">
<style type="text/css">
	.st0{fill:#FFFFFF;}
</style>
<g>
	<path class="st0" d="M59.6,26.6L59.6,26.6l-0.1-4.1c0-4.1-2.9-7.6-6.8-8.6v-2.7c0-4-3.2-7.3-7.3-7.3H13.2c-4,0-7.2,3.2-7.2,7.3V18
		v22.7v6.1c0,4,3.2,7.3,7.3,7.3h37.6c4.8,0,8.8-3.9,8.8-8.8v-4.1h0.1c2.5,0,4.4-2,4.4-4.4V31C64.1,28.6,62.1,26.6,59.6,26.6z
		 M57,45.3c0,3.4-2.8,6.2-6.2,6.2H13.2c-2.6,0-4.8-2.2-4.8-4.8v-6.2V18v-6.7c0-2.6,2.2-4.8,4.8-4.8h32.3c2.6,0,4.8,2.2,4.8,4.8v2.5
		H15.8c-0.6,0-1-0.4-1-1s0.4-1,1-1h29.7c0.7,0,1.3-0.6,1.3-1.3c0-0.7-0.6-1.3-1.3-1.3H15.8c-2,0-3.6,1.6-3.6,3.6s1.6,3.6,3.6,3.6
		h34.9c3.4,0,6.2,2.8,6.2,6.2v4.1h-7.1c-3.5,0-6.3,2.9-6.3,6.3v1.9c0,3.5,2.9,6.3,6.3,6.3H57C57,41.2,57,45.3,57,45.3z M61.5,36.7
		c0,1.1-0.8,1.9-1.9,1.9h-9.8c-2.1,0-3.8-1.7-3.8-3.8v-1.9c0-2.1,1.7-3.8,3.8-3.8h9.8c1.1,0,1.9,0.8,1.9,1.9V36.7z"/>
</g>
</svg>
