<?xml version="1.0" encoding="utf-8"?><svg version="1.1" id="Layer_1" xmlns="http://www.w3.org/2000/svg" xmlns:xlink="http://www.w3.org/1999/xlink" x="0px" y="0px" viewBox="0 0 100 100" style="enable-background:new 0 0 100 100;" xml:space="preserve"><style type="text/css">.st0{fill:#FFFFFF;}</style><path class="st0" d="M41.9,13.8c-9.5,1.9-18.4,6.9-24.9,15.1c-12.8,16-12.2,38.3,0.3,53.5l0-23.3c-0.2-7,2-14.1,6.8-20c10.7-13.3,30.1-15.4,43.4-4.7C80.7,45,82.8,64.5,72.2,77.8c-4.7,5.9-11.2,9.6-18.1,11l-22.5,5c17.4,8.5,39,4.2,51.7-11.6c6.5-8.1,9.6-17.9,9.3-27.6l0.1-52L41.9,13.8z"/><path class="st0" d="M17.2,82.4l0,14.5l14.4-3.2c-2.8-1.4-5.5-3-8.1-5.1C21.1,86.8,19,84.7,17.2,82.4"/><path class="st0" d="M59,44.7c-7.5-6.1-18.6-4.9-24.6,2.7C28.4,54.9,29.6,66,37.1,72c7.5,6.1,18.5,4.8,24.6-2.7C67.8,61.8,66.6,50.8,59,44.7"/></svg>